<svg width="476" height="415" viewBox="0 0 476 415" fill="none" xmlns="http://www.w3.org/2000/svg">
  <path fill-rule="evenodd" clip-rule="evenodd" d="M-69.6954 429.776C-96.1868 433.958 -114.274 458.922 -110.076 485.511C-105.881 512.08 -80.9426 530.51 -54.4512 526.327C-49.2774 525.51 -44.3196 523.83 -39.673 521.442C57.4437 629.348 216.862 632.606 320.102 549.622C323.107 547.194 323.658 542.223 321.246 539.195C318.834 536.167 313.883 535.613 310.858 538.044C213.811 616.063 64.1234 613.701 -27.8523 512.598C-17.1811 501.903 -11.5711 486.425 -14.1047 470.378C-18.3252 443.773 -43.2235 425.596 -69.6954 429.776Z" fill="#FFB076"/>
  <path fill-rule="evenodd" clip-rule="evenodd" d="M249.353 101.647C243.427 103.38 243.174 113.646 249.016 115.674C342.716 154.466 406.584 249.262 402.006 356C399.43 355.968 396.803 356.124 394.196 356.535C367.724 360.715 349.621 385.701 353.816 412.27C358.011 438.839 382.949 457.269 409.441 453.087C435.932 448.904 453.982 423.707 449.784 397.118C446.821 378.349 433.514 363.764 416.535 358.371C422.117 244.736 354.336 143.342 254.513 102.008C253.185 101.42 251.684 101.259 250.251 101.525C249.953 101.532 249.661 101.578 249.353 101.647Z" fill="#FFB076"/>
  <path fill-rule="evenodd" clip-rule="evenodd" d="M107.198 44.4678C81.6796 48.4969 64.1106 71.9436 66.6216 97.443C-39.5806 135.023 -105.567 234.512 -107.452 340.506C-107.472 341.008 -107.454 341.503 -107.396 341.993C-107.32 342.479 -107.204 342.959 -107.03 343.43C-106.856 343.901 -106.646 344.346 -106.4 344.766C-106.135 345.183 -105.854 345.577 -105.517 345.942C-105.18 346.308 -104.811 346.628 -104.405 346.923C-104 347.218 -103.584 347.451 -103.133 347.659C-102.681 347.867 -102.22 348.013 -101.725 348.114C-101.25 348.219 -100.762 348.281 -100.263 348.282C-99.7647 348.283 -99.2723 348.246 -98.7891 348.149C-98.3059 348.053 -97.8289 347.918 -97.3805 347.728C-96.9321 347.537 -96.4899 347.308 -96.0732 347.043C-95.6597 346.758 -95.288 346.46 -94.9257 346.104C-94.5827 345.751 -94.2654 345.362 -93.99 344.959C-93.7177 344.538 -93.4873 344.103 -93.3215 343.638C-93.1362 343.17 -93.0093 342.711 -92.9274 342.22C-92.8455 341.729 -92.8025 341.243 -92.8209 340.748C-91.0562 241.192 -29.485 147.703 70.0437 111.794C78.5965 131.874 99.9795 144.327 122.406 140.786C148.878 136.606 166.981 111.62 162.786 85.0509C158.591 58.4817 133.67 40.2883 107.198 44.4678Z" fill="#FFB076"/>
</svg>