<svg width="421" height="606" viewBox="0 0 421 606" fill="none" xmlns="http://www.w3.org/2000/svg">
  <path fill-rule="evenodd" clip-rule="evenodd" d="M264.714 434.478C247.303 452.194 247.602 480.743 265.382 498.219C283.15 515.681 311.87 515.651 329.281 497.936C332.681 494.476 335.445 490.493 337.587 486.154C469.348 512.933 589.794 427.483 620.89 308.813C621.789 305.349 619.459 301.345 615.995 300.421C612.53 299.497 608.54 301.814 607.628 305.291C578.405 416.852 465.695 497.605 341.51 473.056C343.557 459.213 339.2 444.601 328.469 434.055C310.663 416.58 282.112 416.775 264.714 434.478Z" fill="#97BEF2"/>
  <path fill-rule="evenodd" clip-rule="evenodd" d="M321.299 14.3948C317.844 18.9513 323.315 26.732 328.781 25.021C419.902 2.24328 519.69 37.5913 575.12 119.557C573.184 120.954 571.315 122.517 569.602 124.26C552.204 141.963 552.503 170.538 570.27 188.001C588.038 205.463 616.758 205.434 634.169 187.718C651.58 170.002 651.125 141.299 633.345 123.824C620.793 111.488 602.849 107.968 587.24 113.313C528.756 25.6611 422.419 -12.4416 325.34 11.8192C324.027 12.1143 322.821 12.8212 321.901 13.8093C321.683 13.9788 321.491 14.1739 321.299 14.3948Z" fill="#97BEF2"/>
  <path fill-rule="evenodd" clip-rule="evenodd" d="M183.982 50.1979C167.21 67.2631 167.058 94.3982 182.983 111.993C124.654 198.503 130.383 308.923 187.406 388.85C187.667 389.235 187.954 389.593 188.267 389.926C188.592 390.246 188.943 390.539 189.332 390.794C189.721 391.048 190.122 391.264 190.537 391.441C190.964 391.605 191.39 391.743 191.843 391.829C192.295 391.916 192.746 391.951 193.211 391.947C193.675 391.943 194.113 391.887 194.563 391.793C195.014 391.699 195.438 391.553 195.862 391.356C196.273 391.172 196.671 390.949 197.043 390.675C197.414 390.401 197.76 390.102 198.066 389.764C198.373 389.426 198.654 389.062 198.882 388.673C199.111 388.284 199.314 387.87 199.478 387.443C199.629 387.003 199.741 386.577 199.815 386.112C199.875 385.66 199.897 385.195 199.88 384.744C199.85 384.28 199.782 383.829 199.649 383.392C199.529 382.942 199.371 382.53 199.161 382.12C198.951 381.709 198.716 381.324 198.429 380.965C144.865 305.896 139.157 202.375 193.44 120.787C210.874 131.018 233.653 128.499 248.393 113.502C265.791 95.7995 265.492 67.224 247.724 49.7616C229.957 32.2993 201.38 32.4953 183.982 50.1979Z" fill="#97BEF2"/>
</svg>